<svg xmlns="http://www.w3.org/2000/svg" style="visibility:hidden; width:0; height:0;">


  <symbol id='facebook' viewBox="0 0 14222 14222">
    <path d="M14222 7111C14222 3184 11038 0 7111 0S0 3184 0 7111c0 3549 2600 6491 6000 7025V9167H4194V7111h1806V5544c0-1782 1062-2767 2686-2767 778 0 1592 139 1592 139v1750h-897c-883 0-1159 548-1159 1111v1334h1972l-315 2056H8222v4969c3400-533 6000-3475 6000-7025z"/>
  </symbol>


  <symbol id="whatsapp" viewBox="0 0 24 24">
  <path d="M17.498 14.382c-.301-.15-1.767-.867-2.04-.966-.273-.101-.473-.15-.673.15-.197.295-.771.964-.944 1.162-.175.195-.349.21-.646.075-.3-.15-1.263-.465-2.403-1.485-.888-.795-1.484-1.77-1.66-2.07-.174-.3-.019-.465.13-.615.136-.135.301-.345.451-.523.146-.181.194-.301.297-.496.1-.21.049-.375-.025-.524-.075-.15-.672-1.62-.922-2.206-.24-.584-.487-.51-.672-.51-.172-.015-.371-.015-.571-.015-.2 0-.523.074-.797.359-.273.3-1.045 1.02-1.045 2.475s1.07 2.865 1.219 3.075c.149.195 2.105 3.195 5.1 4.485.714.3 1.27.48 1.704.629.714.227 1.365.195 1.88.121.574-.091 1.767-.721 2.016-1.426.255-.705.255-1.29.18-1.425-.074-.135-.27-.21-.57-.345m-5.446 7.443h-.016c-1.77 0-3.524-.48-5.055-1.38l-.36-.214-3.75.975 1.005-3.645-.239-.375c-.99-1.576-1.516-3.391-1.516-5.26 0-5.445 4.455-9.885 9.942-9.885 2.654 0 5.145 1.035 7.021 2.91 1.875 1.859 2.909 4.35 2.909 6.99-.004 5.444-4.46 9.885-9.935 9.885M20.52 3.449C18.24 1.245 15.24 0 12.045 0 5.463 0 .104 5.334.101 11.893c0 2.096.549 4.14 1.595 5.945L0 24l6.335-1.652c1.746.943 3.71 1.444 5.71 1.447h.006c6.585 0 11.946-5.336 11.949-11.896 0-3.176-1.24-6.165-3.495-8.411"/>
  </symbol>

  <symbol id="skype" viewBox="0 0 24 24">
    <path d="M12.069 18.874c-4.023 0-5.82-1.979-5.82-3.464 0-.765.561-1.296 1.333-1.296 1.723 0 1.273 2.477 4.487 2.477 1.641 0 2.55-.895 2.55-1.811 0-.551-.269-1.16-1.354-1.429l-3.576-.895c-2.88-.724-3.403-2.286-3.403-3.751 0-3.047 2.861-4.191 5.549-4.191 2.471 0 5.393 1.373 5.393 3.199 0 .784-.688 1.24-1.453 1.24-1.469 0-1.198-2.037-4.164-2.037-1.469 0-2.292.664-2.292 1.617s1.153 1.258 2.157 1.487l2.637.587c2.891.649 3.624 2.346 3.624 3.944 0 2.476-1.902 4.324-5.722 4.324m11.084-4.882l-.029.135-.044-.24c.015.045.044.074.059.12.12-.675.181-1.363.181-2.052 0-1.529-.301-3.012-.898-4.42-.569-1.348-1.395-2.562-2.427-3.596-1.049-1.033-2.247-1.856-3.595-2.426-1.318-.631-2.801-.93-4.328-.93-.72 0-1.444.07-2.143.204l.119.06-.239-.033.119-.025C8.91.274 7.829 0 6.731 0c-1.789 0-3.47.698-4.736 1.967C.729 3.235.032 4.923.032 6.716c0 1.143.292 2.265.844 3.258l.02-.124.041.239-.06-.115c-.114.645-.172 1.299-.172 1.955 0 1.53.3 3.017.884 4.416.568 1.362 1.378 2.576 2.427 3.609 1.034 1.05 2.247 1.857 3.595 2.442 1.394.6 2.877.898 4.404.898.659 0 1.334-.06 1.977-.179l-.119-.062.24.046-.135.03c1.002.569 2.126.871 3.294.871 1.783 0 3.459-.69 4.733-1.963 1.259-1.259 1.962-2.951 1.962-4.749 0-1.138-.299-2.262-.853-3.266"/>
  </symbol>

  <symbol id="viber" viewBox="0 0 24 24">
    <path d="M11.398.002C9.473.028 5.331.344 3.014 2.467 1.294 4.177.693 6.698.623 9.82c-.06 3.11-.13 8.95 5.5 10.541v2.42s-.038.97.602 1.17c.79.25 1.24-.499 1.99-1.299l1.4-1.58c3.85.32 6.8-.419 7.14-.529.78-.25 5.181-.811 5.901-6.652.74-6.031-.36-9.831-2.34-11.551l-.01-.002c-.6-.55-3-2.3-8.37-2.32 0 0-.396-.025-1.038-.016zm.067 1.697c.545-.003.88.02.88.02 4.54.01 6.711 1.38 7.221 1.84 1.67 1.429 2.528 4.856 1.9 9.892-.6 4.88-4.17 5.19-4.83 5.4-.28.09-2.88.73-6.152.52 0 0-2.439 2.941-3.199 3.701-.12.13-.26.17-.35.15-.13-.03-.17-.19-.16-.41l.02-4.019c-4.771-1.32-4.491-6.302-4.441-8.902.06-2.6.55-4.732 2-6.172 1.957-1.77 5.475-2.01 7.11-2.02zm.36 2.6a.299.299 0 0 0-.3.299.3.3 0 0 0 .3.3 5.631 5.631 0 0 1 4.03 1.59c1.09 1.06 1.621 2.48 1.641 4.34a.3.3 0 0 0 .3.3v-.009a.3.3 0 0 0 .3-.3 6.451 6.451 0 0 0-1.81-4.76c-1.19-1.16-2.692-1.76-4.462-1.76zm-3.954.69a.955.955 0 0 0-.615.12h-.012c-.41.24-.788.54-1.148.94-.27.32-.421.639-.461.949a1.24 1.24 0 0 0 .05.541l.02.01a13.722 13.722 0 0 0 1.2 2.6 15.383 15.383 0 0 0 2.32 3.171l.03.04.04.03.03.03.03.03a15.603 15.603 0 0 0 3.18 2.33c1.32.72 2.122 1.06 2.602 1.2v.01c.14.04.268.06.398.06a1.84 1.84 0 0 0 1.102-.472c.39-.35.7-.738.93-1.148v-.01c.23-.43.15-.841-.18-1.121a13.632 13.632 0 0 0-2.15-1.54c-.51-.28-1.03-.11-1.24.17l-.45.569c-.23.28-.65.24-.65.24l-.012.01c-3.12-.8-3.95-3.959-3.95-3.959s-.04-.43.25-.65l.56-.45c.27-.22.46-.74.17-1.25a13.522 13.522 0 0 0-1.54-2.15.843.843 0 0 0-.504-.3zm4.473.89a.3.3 0 0 0 .002.6 3.78 3.78 0 0 1 2.65 1.15 3.5 3.5 0 0 1 .9 2.57.3.3 0 0 0 .3.299l.01.012a.3.3 0 0 0 .3-.301c.03-1.19-.34-2.19-1.07-2.99-.73-.8-1.75-1.25-3.05-1.34a.3.3 0 0 0-.042 0zm.49 1.619a.305.305 0 0 0-.018.611c.99.05 1.47.55 1.53 1.58a.3.3 0 0 0 .3.29h.01a.3.3 0 0 0 .29-.32c-.07-1.34-.8-2.091-2.1-2.161a.305.305 0 0 0-.012 0z"/>
    </symbol>

  <symbol id='github' viewBox="0 0 24 24">
    <path d="M12 .297c-6.63 0-12 5.373-12 12 0 5.303 3.438 9.8 8.205 11.385.6.113.82-.258.82-.577 0-.285-.01-1.04-.015-2.04-3.338.724-4.042-1.61-4.042-1.61C4.422 18.07 3.633 17.7 3.633 17.7c-1.087-.744.084-.729.084-.729 1.205.084 1.838 1.236 1.838 1.236 1.07 1.835 2.809 1.305 3.495.998.108-.776.417-1.305.76-1.605-2.665-.3-5.466-1.332-5.466-5.93 0-1.31.465-2.38 1.235-3.22-.135-.303-.54-1.523.105-3.176 0 0 1.005-.322 3.3 1.23.96-.267 1.98-.399 3-.405 1.02.006 2.04.138 3 .405 2.28-1.552 3.285-1.23 3.285-1.23.645 1.653.24 2.873.12 3.176.765.84 1.23 1.91 1.23 3.22 0 4.61-2.805 5.625-5.475 5.92.42.36.81 1.096.81 2.22 0 1.606-.015 2.896-.015 3.286 0 .315.21.69.825.57C20.565 22.092 24 17.592 24 12.297c0-6.627-5.373-12-12-12"/>
  </symbol>

  <symbol id='youtube' viewBox="0 0 24 24">
    <path d="M23.495 6.205a3.007 3.007 0 0 0-2.088-2.088c-1.87-.501-9.396-.501-9.396-.501s-7.507-.01-9.396.501A3.007 3.007 0 0 0 .527 6.205a31.247 31.247 0 0 0-.522 5.805 31.247 31.247 0 0 0 .522 5.783 3.007 3.007 0 0 0 2.088 2.088c1.868.502 9.396.502 9.396.502s7.506 0 9.396-.502a3.007 3.007 0 0 0 2.088-2.088 31.247 31.247 0 0 0 .5-5.783 31.247 31.247 0 0 0-.5-5.805zM9.609 15.601V8.408l6.264 3.602z"/>
  </symbol>
  
  <symbol id='vkontakte' viewBox="0 0 48 48">
    <path d="M24 0C10.745 0 0 10.745 0 24s10.745 24 24 24 24-10.745 24-24S37.255 0 24 0zm-2.313 16.992c.34-.005.696-.002 1.069.002 1.162.012 1.497.082 1.951.19 1.368.324.902 1.577.902 4.582 0 .961-.176 2.314.532 2.763.304.192 1.048.03 2.908-3.07.882-1.47 1.54-3.197 1.54-3.197s.148-.308.372-.44c.23-.134.539-.093.539-.093l4.176-.026s1.256-.15 1.459.408c.213.583-.47 1.947-2.176 4.18-2.802 3.666-3.115 3.322-.787 5.441 2.221 2.025 2.682 3.01 2.758 3.133.92 1.498-1.02 1.615-1.02 1.615l-3.71.051s-.798.156-1.846-.55c-1.39-.935-2.696-3.367-3.715-3.05-1.034.323-1.004 2.508-1.004 2.508s.008.47-.227.717c-.257.271-.758.324-.758.324h-1.66s-3.664.217-6.89-3.08c-3.52-3.596-6.625-10.734-6.625-10.734s-.181-.468.013-.693c.219-.255.817-.27.817-.27l3.968-.025s.373.06.641.254c.222.16.346.457.346.457s.64 1.592 1.49 3.033c1.659 2.813 2.43 3.426 2.992 3.125.82-.439.576-3.975.576-3.975s.014-1.283-.414-1.855c-.331-.443-.956-.574-1.232-.61-.224-.029.144-.537.619-.765.536-.257 1.38-.334 2.396-.35z"/>
  </symbol>
  
  <symbol id='twitter' viewBox="0 0 24 24">
    <path d="M23.954 4.569a10 10 0 0 1-2.825.775 4.958 4.958 0 0 0 2.163-2.723c-.951.555-2.005.959-3.127 1.184a4.92 4.92 0 0 0-8.384 4.482C7.691 8.094 4.066 6.13 1.64 3.161a4.822 4.822 0 0 0-.666 2.475c0 1.71.87 3.213 2.188 4.096a4.904 4.904 0 0 1-2.228-.616v.061a4.923 4.923 0 0 0 3.946 4.827 4.996 4.996 0 0 1-2.212.085 4.937 4.937 0 0 0 4.604 3.417 9.868 9.868 0 0 1-6.102 2.105c-.39 0-.779-.023-1.17-.067a13.995 13.995 0 0 0 7.557 2.209c9.054 0 13.999-7.496 13.999-13.986 0-.209 0-.42-.015-.63a9.936 9.936 0 0 0 2.46-2.548l-.047-.02z"/>
  </symbol>
  
  <symbol id='telegram' viewBox="0 0 48 48">
    <path d="M24 0C10.745 0 0 10.745 0 24s10.745 24 24 24 24-10.745 24-24S37.255 0 24 0zm9.32 13.615c.781-.046 1.518.172 1.627 1.092-.095 2.084-.49 4.156-.76 6.227-.685 4.556-1.478 9.093-2.251 13.634-.267 1.512-2.162 2.296-3.374 1.328-2.913-1.968-5.848-3.915-8.724-5.93-.942-.956-.07-2.332.771-3.015 2.4-2.365 4.945-4.373 7.22-6.86.612-1.481-1.2-.234-1.798.15-3.285 2.262-6.49 4.664-9.953 6.654-1.77.973-3.83.14-5.6-.403-1.584-.657-3.906-1.318-2.54-2.318 2.805-1.545 5.94-2.834 8.865-4.131 5.034-2.123 10.086-4.21 15.191-6.152a5.388 5.388 0 0 1 1.326-.276z"/> 
  </symbol>
    
  <symbol id='odnoklassniki' viewBox="0 0 24 24">
    <path d="M14.505 17.44a11.599 11.599 0 0 0 3.6-1.49 1.816 1.816 0 0 0-1.935-3.073 7.866 7.866 0 0 1-8.34 0 1.814 1.814 0 0 0-2.5.565c0 .002 0 .004-.002.005a1.812 1.812 0 0 0 .567 2.5l.002.002c1.105.695 2.322 1.2 3.596 1.488l-3.465 3.465A1.796 1.796 0 0 0 6 23.439l.03.03c.344.354.81.53 1.274.53.465 0 .93-.176 1.275-.53L12 20.065l3.404 3.406a1.815 1.815 0 0 0 2.566-2.565l-3.465-3.466zM12 12.388a6.202 6.202 0 0 0 6.195-6.193C18.195 2.78 15.415 0 12 0S5.805 2.78 5.805 6.197A6.2 6.2 0 0 0 12 12.389zm0-8.757a2.566 2.566 0 0 1 0 5.13 2.569 2.569 0 0 1-2.565-2.564A2.57 2.57 0 0 1 12 3.63z"/>
  </symbol>
  
  <symbol id='instagram' viewBox="0 0 12.7 12.7">
    <path d="M6.35.661c-1.545 0-1.738.007-2.345.035-.606.028-1.018.123-1.381.264-.374.145-.692.34-1.008.656A2.775 2.775 0 0 0 .96 2.624c-.14.363-.236.775-.264 1.38-.029.608-.035.8-.035 2.346 0 1.545.007 1.738.035 2.345.028.605.123 1.018.264 1.381.145.374.34.692.656 1.008.316.316.633.511 1.008.656.363.14.776.236 1.38.264.608.029.8.035 2.346.035 1.545 0 1.738-.007 2.345-.035.605-.028 1.018-.124 1.381-.264.374-.145.692-.34 1.008-.656.316-.316.511-.633.656-1.008.14-.363.236-.776.264-1.38.029-.608.035-.8.035-2.346 0-1.545-.007-1.738-.035-2.345-.028-.605-.124-1.019-.264-1.381a2.792 2.792 0 0 0-.656-1.008A2.771 2.771 0 0 0 10.076.96C9.713.82 9.3.724 8.696.696 8.087.667 7.895.66 6.35.66zm0 1.024c1.518 0 1.7.007 2.3.034.554.026.855.118 1.055.197.266.103.455.226.655.425.199.199.322.388.425.654.078.2.17.501.196 1.056.027.6.033.78.033 2.3 0 1.518-.007 1.699-.035 2.298-.03.555-.122.856-.2 1.056a1.806 1.806 0 0 1-.426.655c-.199.199-.39.322-.654.425-.2.078-.505.17-1.06.196-.604.027-.782.033-2.303.033-1.522 0-1.7-.007-2.304-.035-.555-.03-.86-.122-1.06-.2a1.762 1.762 0 0 1-.653-.426c-.2-.199-.327-.39-.427-.654-.078-.2-.17-.505-.2-1.06-.02-.597-.028-.781-.028-2.296 0-1.515.007-1.7.029-2.304.029-.555.12-.86.2-1.06.099-.27.226-.454.426-.654.198-.199.384-.327.653-.426.2-.078.499-.17 1.053-.2.605-.02.782-.028 2.304-.028zm0 1.744a2.92 2.92 0 1 0 0 5.842 2.92 2.92 0 0 0 0-5.842zm0 4.817a1.896 1.896 0 1 1-.001-3.791 1.896 1.896 0 0 1 .001 3.791zm3.72-4.932a.683.683 0 1 1-1.367-.001.683.683 0 0 1 1.366 0z"/>
  </symbol>
  
</svg>






