<svg xmlns="http://www.w3.org/2000/svg" viewBox="0 0 154.314 17.244" version="1.1" id="svg8">
  <g id="layer1" transform="translate(-17.946 -106.645)">
    <g id="g837" transform="translate(10.544 102.585) scale(.01758)" stroke-width="15.049">
      <path id="path817" d="M808 336l387 218.9v437.9l-387 218.9-387-218.9V554.9z" fill="#fff"/>
      <path id="path819" d="M1125.9 977.7l-305.1 172.6v-134.4l190.1-104.6zm20.9-18.9V597.9l-111.6 64.5v232zm-657.9 18.9L794 1150.3v-134.4L603.8 911.3zM468 958.8V597.9l111.6 64.5v232zm13.1-384.3l312.9-177v129.9L593.5 637.7l-1.6.9zm652.6 0l-312.9-177v129.9l200.5 110.2 1.6.9z" fill="#8ed6fb"/>
      <path id="path821" d="M794 985.3L606.4 882.1V677.8L794 786.1zm26.8 0l187.6-103.1V677.8L820.8 786.1zm-13.4-207zM619.1 654.2l188.3-103.5 188.3 103.5-188.3 108.7z" fill="#1c78c0"/>
      <path id="path823" d="M1585.3 912.3h82.5l84.1-280.2h-80.4l-49.8 198.8-53.1-198.8H1499l-53.6 198.8-49.3-198.8h-80.4l83.6 280.2h82.5l52-179.5zM1756.2 773c0 84.1 57.3 146.3 147.4 146.3 69.7 0 107.2-41.8 117.9-61.6l-48.8-37c-8 11.8-30 34.3-68.1 34.3-41.3 0-71.3-26.8-72.9-64.3H2029c.5-5.4.5-10.7.5-16.1 0-91.6-49.3-149.5-136.1-149.5-79.9 0-137.2 63.2-137.2 147.9zm77.7-30.6c3.2-32.1 25.7-56.8 60.6-56.8 33.8 0 58.4 22.5 60 56.8zm223.5 169.9h69.7v-28.9c7.5 9.1 35.4 35.9 83.1 35.9 80.4 0 137.2-60.5 137.2-146.8 0-86.8-52.5-147.3-132.9-147.3-48.2 0-76.1 26.8-83.1 36.4V524.9h-73.9v387.4zm71.8-139.3c0-52.5 31.1-82.5 71.8-82.5 42.9 0 71.8 33.8 71.8 82.5 0 49.8-30 80.9-71.8 80.9-45 0-71.8-36.5-71.8-80.9zm247 239.5h73.9V883.3c7 9.1 34.8 35.9 83.1 35.9 80.4 0 132.9-60.5 132.9-147.3 0-85.7-56.8-146.8-137.2-146.8-47.7 0-75.6 26.8-83.1 36.4V632h-69.7v380.5zm71.8-241.1c0-44.5 26.8-80.9 71.8-80.9 41.8 0 71.8 31.1 71.8 80.9 0 48.8-28.9 82.5-71.8 82.5-40.7 0-71.8-30-71.8-82.5zm231.5 54.1c0 58.9 48.2 93.8 105 93.8 32.2 0 53.6-9.6 68.1-25.2l4.8 18.2h65.4V734.9c0-62.7-26.8-109.8-116.8-109.8-42.9 0-85.2 16.1-110.4 33.2l27.9 50.4c20.9-10.7 46.6-19.8 74.5-19.8 32.7 0 50.9 16.6 50.9 41.3v18.2c-10.2-7-32.2-15.5-60.6-15.5-65.4-.1-108.8 37.4-108.8 92.6zm73.9-2.2c0-23 19.8-39.1 48.2-39.1 28.4 0 48.8 14.5 48.8 39.1 0 23.6-20.4 38.6-48.2 38.6-27.8 0-48.8-15.5-48.8-38.6zm348.9 30.6c-46.6 0-79.8-33.8-79.8-81.4 0-45 29.5-82 77.2-82 31.6 0 53.1 15.5 65.4 26.8l20.9-62.2c-18.2-13.9-47.2-30-88.4-30-85.2 0-149 62.7-149 147.9s62.2 146.3 149.5 146.3c40.7 0 71.3-17.1 87.3-30l-19.8-60.5c-12.4 10.1-34.9 25.1-63.3 25.1zm110.9 58.4h73.9V767.6l93.8 144.7h86.8L3361.6 759l98.6-127h-83.1l-90 117.9v-225h-73.9z" fill="#1a1c1c"/>
    </g>
    <path id="path839" d="M138.368 115.869a4.412 4.412 0 00-1.942.452c-.201-.398-.402-.745-.435-1.005-.038-.301-.084-.485-.038-.845.046-.36.255-.87.255-.913-.004-.037-.046-.222-.477-.226-.431-.004-.804.084-.846.197a4.815 4.815 0 00-.18.64c-.075.394-.862 1.788-1.31 2.52-.146-.284-.272-.535-.297-.736-.038-.302-.084-.486-.038-.846.047-.36.256-.87.256-.912-.004-.038-.046-.222-.477-.226-.431-.004-.804.083-.846.196-.042.113-.088.381-.18.64-.088.26-1.134 2.588-1.406 3.194-.138.31-.26.557-.348.725-.088.167-.004.012-.012.029-.076.142-.117.222-.117.222v.004c-.059.104-.122.205-.151.205-.021 0-.063-.28.009-.666.155-.808.531-2.067.527-2.114 0-.02.071-.242-.243-.355-.305-.113-.414.075-.439.075-.025 0-.046.067-.046.067s.339-1.419-.649-1.419c-.62 0-1.473.674-1.896 1.29-.268.146-.837.455-1.44.786-.23.126-.469.26-.695.381l-.046-.05c-1.197-1.277-3.411-2.181-3.319-3.897.033-.624.251-2.269 4.253-4.261 3.277-1.633 5.902-1.185 6.358-.189.649 1.424-1.402 4.069-4.81 4.45-1.297.146-1.98-.356-2.151-.544-.18-.197-.205-.205-.272-.168-.109.059-.042.235 0 .34.1.263.519.732 1.23.966.624.205 2.148.318 3.99-.393 2.063-.8 3.675-3.018 3.202-4.872-.482-1.888-3.613-2.508-6.572-1.457-1.762.628-3.671 1.607-5.044 2.892-1.632 1.524-1.892 2.855-1.783 3.407.38 1.972 3.097 3.257 4.186 4.207l-.15.084c-.545.268-2.617 1.352-3.136 2.499-.586 1.297.092 2.23.544 2.356 1.398.39 2.83-.31 3.604-1.46.77-1.152.678-2.646.322-3.328l-.012-.025.427-.251c.276-.164.548-.314.787-.444-.134.364-.23.795-.28 1.423-.06.737.242 1.691.64 2.068.175.163.385.167.514.167.46 0 .67-.38.9-.837.285-.557.536-1.201.536-1.201s-.314 1.745.544 1.745c.314 0 .628-.406.77-.615v.004s.01-.013.026-.042a1.512 1.512 0 00.05-.08v-.008c.125-.218.406-.716.824-1.54.54-1.064 1.06-2.395 1.06-2.395s.05.326.204.862c.092.318.293.666.448 1.005-.125.176-.2.276-.2.276l.003.004c-.1.134-.213.276-.33.419-.427.51-.938 1.092-1.005 1.26-.08.196-.063.343.092.46.113.084.314.1.528.084.385-.025.653-.122.787-.18.209-.076.447-.189.678-.356.418-.31.674-.75.648-1.335-.012-.323-.117-.64-.247-.942.038-.055.076-.109.114-.167.66-.967 1.172-2.03 1.172-2.03s.05.326.205.862c.08.272.238.569.38.862-.619.506-1.008 1.093-1.142 1.478-.247.711-.055 1.033.31 1.109.163.033.397-.042.573-.117.218-.071.481-.193.724-.373.419-.31.82-.74.8-1.323a2.534 2.534 0 00-.18-.782c.527-.218 1.21-.344 2.076-.239 1.862.218 2.23 1.381 2.16 1.867-.072.485-.46.753-.59.837-.13.08-.172.109-.16.167.017.088.076.084.189.068.155-.026.98-.398 1.013-1.294.05-1.151-1.043-2.407-2.98-2.394zm-14.365 4.843c-.616.674-1.482.929-1.85.711-.398-.23-.243-1.222.514-1.938.46-.435 1.06-.837 1.453-1.084l.38-.23a.446.446 0 01.042-.025c.03-.017.063-.038.097-.059.28 1.022.012 1.917-.637 2.625zm4.5-3.06c-.214.523-.666 1.867-.938 1.792-.235-.063-.377-1.08-.047-2.085.168-.507.524-1.11.733-1.344.34-.376.707-.502.8-.347.108.2-.415 1.658-.549 1.984zm3.712 1.775c-.092.046-.176.08-.214.054-.029-.016.038-.08.038-.08s.465-.497.649-.728c.105-.134.23-.288.364-.464v.05c0 .603-.578 1.004-.837 1.168zm2.863-.653c-.067-.05-.059-.205.167-.69.088-.193.29-.516.637-.821.042.125.067.247.062.36-.004.753-.54 1.034-.866 1.15z" fill="#cf649a" stroke-width="1.292"/>
    <g id="g960" transform="translate(82.928 103.181) scale(.19378)" stroke-width="1.365">
      <path id="path852" d="M107.4 50.9c-.2-4.4.4-8.3-1.6-11.6-4.8-8.2-16.8-13-40.8-13v.7h-.5.5v-.7c-24 0-36.6 4.8-41.4 13.1-1.9 3.4-1.7 7.2-2 11.6-.2 3.5-1.8 7.2-1.1 11.2.8 5.2 1.1 10.4 1.9 15.2.6 3.9 6 7.2 6.5 10.9 1.4 10.2 12 14.9 36 14.9v.8h-.6.7v-.8c24 0 34.2-4.7 35.5-14.9.5-3.8 5.5-7 6.1-10.9.8-4.8 1.1-10 1.9-15.2.7-4-.9-7.8-1.1-11.3z" class="st1" fill="#efcca3" stroke-width="1.365"/>
      <path id="path854" d="M64.6 54.5c4.3.1 7.3 2.8 10.1 5.3 3.3 2.9 8.9 4.9 11.2 7.4 2.3 2.5 5.3 5 6.4 8.9 1.1 3.9 1.4 8.9 1.4 10.2 0 1.3.7 1 2.7 0 4.7-2.3 9.9-8.5 9.9-8.5-.6 3.9-5.7 7.4-6.2 11.1C98.9 99.1 89 104 64.5 104h-.1.6" class="st3" fill="#ccac8d" stroke-width="1.365"/>
      <path id="path856" d="M80.4 46.7c.9 3.1 4.1 13.6-2.1 10.1 0 0 2.6 1.5 4.2 7.2 1.7 5.7 5.8 6.4 5.8 6.4s6.7 1.3 11.7-3c4.2-3.6 4.9-10 3.1-14.9-1.8-4.8-5-6.3-9.7-7.3-4.7-1.1-14.1-2-13 1.5z" class="st3" fill="#ccac8d" stroke-width="1.365"/>
      <g id="g862" stroke-width="1.365">
        <circle id="circle858" r="8.8" cy="58.1" cx="92.3" stroke-width="1.365"/>
        <circle id="circle860" r="2.3" cy="54.2" cx="90" class="st4" fill="#fff" stroke-width="1.365"/>
      </g>
      <path id="path864" d="M78.9 57.7s7.9 5.4 12.2 10.7c4.3 5.3 4.2 6.3 4.2 6.3l-3.1 1.4s-4.4-8.3-9.8-11.4c-5.5-3.1-6.1-5.7-6.1-5.7z" class="st1" fill="#efcca3" stroke-width="1.365"/>
      <path id="path866" d="M64.9 54.5c-4.3.1-7.5 2.8-10.4 5.3-3.3 2.9-9.1 4.9-11.4 7.4-2.3 2.5-5.4 5-6.5 8.9-1.1 3.9-1.5 8.9-1.5 10.2 0 1.3.2 1.4-2.7 0-4.7-2.2-9.9-8.5-9.9-8.5.6 3.9 5.7 7.4 6.2 11.1C30.1 99.1 40 104 64.5 104h.5" class="st3" fill="#ccac8d" stroke-width="1.365"/>
      <path id="path868" d="M88.1 71.4C83.3 65.5 75.6 60 64.9 60h-.1c-10.7 0-18.4 5.5-23.2 11.4-5 6.1-4.6 8.5-4.6 14.3 0 21 7.4 15 12.3 17.6 5 2.5 10.2 1.7 15.5 1.7h.1c5.4 0 10.5.7 15.5-1.8 4.9-2.5 12.3 3.7 12.3-17.3.1-5.8.4-8.4-4.6-14.5z" class="st7" fill="#56332b" stroke-width="1.365"/>
      <path id="path870" d="M64.4 65.2s-.7 9.7-2.1 11.6l2.6-.6z" class="st8" fill="#442823" stroke-width="1.365"/>
      <path id="path872" d="M65.1 65.2s.7 9.7 2.1 11.6l-2.6-.6z" class="st8" fill="#442823" stroke-width="1.365"/>
      <path id="path874" d="M56.7 62.9c-1-2.3 2.6-6 8.3-6.1 5.7 0 9.3 3.7 8.3 6.1-1 2.4-4.6 3.1-8.3 3.2-3.6-.1-7.3-.8-8.3-3.2z" class="st7" fill="#56332b" stroke-width="1.365"/>
      <path id="path876" d="M65 65.2c0-.4 3.4-.5 5.2-1.7 0 0-3.7 1.2-4.5.7-.8-.4-1-1.6-1-1.6s-.3 1.2-.9 1.6c-.7.4-4.9-.7-4.9-.7s5.6 1.4 5.6 1.7c0 .3-.1 1.3-.1 2 0 2.5 0 8.7.4 9.2.6.9.4-6.7.4-9.2-.1-.8-.1-1.6-.2-2z" stroke-width="1.365"/>
      <path id="path878" d="M65.2 78.6c1.7 0 4.7 1.2 7.4 3.1-2.6-2.9-5.7-4.9-7.4-4.9-1.8 0-5.6 2.2-8.3 5.4 2.8-2.2 6.4-3.6 8.3-3.6z" class="st9" fill="#7f4a41" stroke-width="1.365"/>
      <path id="path880" d="M64.5 96.3c-3.8 0-7.5-1.2-10.9-2.1-.7-.2-1.4.3-2.1.1-6.3-2-11.4-5.4-14.5-9.7v1c0 21 7.4 15.1 12.3 17.6 5 2.5 10.2 1.7 15.5 1.7h.1c5.4 0 10.5.7 15.5-1.8 4.9-2.5 12.3 3.6 12.3-17.4 0-.8 0-1.6.1-2.3-2.9 4.7-8.2 8.4-14.8 10.6-.6.2-2-.3-2.6-.2-3.6 1.2-6.8 2.5-10.9 2.5z" class="st8" fill="#442823" stroke-width="1.365"/>
      <path id="path882" d="M55 85s-2.5 7.5-.8 10.8l-2.3-1s1.7-7.6 3.1-9.8z" class="st8" fill="#442823" stroke-width="1.365"/>
      <path id="path884" d="M74.8 85s2.5 7.5.8 10.8l2.3-1s-1.8-7.6-3.1-9.8z" class="st8" fill="#442823" stroke-width="1.365"/>
      <path id="path886" d="M48.6 46.7c-.9 3.1-4.1 13.6 2.1 10.1 0 0-2.6 1.5-4.2 7.2s-5.8 6.4-5.8 6.4-6.7 1.3-11.7-3c-4.2-3.6-4.9-10-3.1-14.9 1.8-4.9 5-6.3 9.7-7.3 4.7-1.1 14-2 13 1.5z" class="st3" fill="#ccac8d" stroke-width="1.365"/>
      <path id="path888" d="M64.9 76.8c2.7 0 11.1 5.8 11.2 12.9v-.4c0-7.4-6.8-13.3-11.2-13.3-4.4 0-11.2 6-11.2 13.3v.4c.1-7.1 8.5-12.9 11.2-12.9z" stroke-width="1.365"/>
      <g id="g894" stroke-width="1.365">
        <ellipse id="ellipse890" ry="1.5" rx=".8" cy="61.5" cx="66.7" class="st10" transform="rotate(-14.465 66.712 61.468)" fill="#331712" stroke-width="1.365"/>
        <ellipse id="ellipse892" ry="1.5" rx=".8" cy="61.5" cx="62.4" class="st10" transform="rotate(17.235 62.371 61.462)" fill="#331712" stroke-width="1.365"/>
      </g>
      <g id="g900" stroke-width="1.365">
        <circle id="circle896" r="8.8" cy="58.1" cx="37.2" stroke-width="1.365"/>
        <circle id="circle898" r="2.3" cy="54.2" cx="39.5" class="st4" fill="#fff" stroke-width="1.365"/>
      </g>
      <g id="g904" stroke-width="1.365">
        <path id="path902" d="M67.5 58.2c0-.1-2.3 1-2.9 1.1-.6-.1-2.9-1.2-2.9-1.1h5.8z" class="st9" fill="#7f4a41" stroke-width="1.365"/>
      </g>
      <path id="path906" d="M50 57.7s-7.9 5.4-12.2 10.7c-4.3 5.3-4.2 6.3-4.2 6.3l3.1 1.4s4.4-8.3 9.8-11.4c5.4-3.1 6.1-5.7 6.1-5.7z" class="st1" fill="#efcca3" stroke-width="1.365"/>
      <path id="path908" d="M32.7 41.7S30 49.1 24 52.2c0 0 9.4-1.1 8.7-10.5z" class="st3" fill="#ccac8d" stroke-width="1.365"/>
      <path id="path910" d="M95.8 41.7s2.7 7.4 8.7 10.5c0 0-9.4-1.1-8.7-10.5z" class="st3" fill="#ccac8d" stroke-width="1.365"/>
      <path id="path912" d="M78.7 55.5s-5.9-6.2-13.8-6.4h.1.1c-8 .2-13.8 6.4-13.8 6.4 6.9-4.8 12.8-4.7 13.8-4.7-.1 0 6.7-.1 13.6 4.7z" class="st3" fill="#ccac8d" stroke-width="1.365"/>
      <path id="path914" d="M71.8 42.5s-3-4.2-7-4.3h.2c-3 .1-6.9 4.3-6.9 4.3 3.4-3.3 6.9-3.2 6.9-3.2s3.3-.1 6.8 3.2z" class="st3" fill="#ccac8d" stroke-width="1.365"/>
      <path id="path916" d="M37.2 73.2s-4.7 2.3-8.1.9H29c-3-1.7-4.5-6.8-4.5-6.8s3 9 12.7 5.9z" class="st3" fill="#ccac8d" stroke-width="1.365"/>
      <path id="path918" d="M92 73.2s4.7 2.3 8.1.9c4-1.7 4.6-6.8 4.6-6.8s-3 9-12.7 5.9z" class="st3" fill="#ccac8d" stroke-width="1.365"/>
      <g id="g922" stroke-width="1.365">
        <path id="path920" d="M42.6 41.2c2.6-.5 6.9-.6 10.3.5 4.3 1.5.8 7 1.7 7.3.9.3 2.1-3.8 10.1-3.4 8.1.4 9 4 10.1 3.4 1.1-.6-1.1-10 11-7.8 0 0-12.7-3.4-12.1 5.8 0 0-7.3-5.6-17.5-.6.1 0 2.7-8.6-13.6-5.2z" class="st3" fill="#ccac8d" stroke-width="1.365"/>
      </g>
      <path id="path924" d="M86.9 41.2c.2 0 .3.1.4.1.1 0-.1-.1-.4-.1z" class="st3" fill="#ccac8d" stroke-width="1.365"/>
      <path id="path926" d="M86.9 41.2z" class="st3" fill="#ccac8d" stroke-width="1.365"/>
      <path id="path928" d="M39.1 28.9S28.3 42.5 26.7 47.7c-1.6 5.3-2.8 27-4.2 30.1l-5-21.4 9.2-22.3z" class="st3" fill="#ccac8d" stroke-width="1.365"/>
      <path id="path930" d="M89.9 28.9s10.8 13.6 12.4 18.8c1.6 5.3 2.8 27 4.2 30.1l5-21.4-9.2-22.3z" class="st3" fill="#ccac8d" stroke-width="1.365"/>
      <path id="path932" d="M89.4 28.9s11.6 9.7 15 20.9c3.4 11.2 2 24.8 4.6 26.5 3.7 2.4 7.9-11.9 9.3-13.4 2.2-2.4 9.5-8.5 10-9.6.5-1.1-14.8-17.8-21.5-21.1-8.1-3.8-18.1-4.1-17.4-3.3z" class="st7" fill="#56332b" stroke-width="1.365"/>
      <path id="path934" d="M99.3 34.9s13.7 17.5 13.5 39.3l5.5-11.2c-.1 0-4.9-14.3-19-28.1z" class="st8" fill="#442823" stroke-width="1.365"/>
      <path id="path936" d="M39.1 28.9s-11.6 9.7-15 20.9c-3.4 11.2-2 24.8-4.6 26.5-3.7 2.4-7.9-11.9-9.3-13.4C8 60.5.7 54.4.2 53.3-.3 52.2 15 35.5 21.7 32.2c8.1-3.8 18.1-4.1 17.4-3.3z" class="st7" fill="#56332b" stroke-width="1.365"/>
      <path id="path938" d="M29.2 34.9S15.5 52.4 15.7 74.2L10.3 63s4.8-14.3 18.9-28.1z" class="st8" fill="#442823" stroke-width="1.365"/>
      <path id="path940" d="M21.8 74.6s1 5.4 2.6 7.1c1.6 1.7.5-1.3.5-1.3s-1.7-.9-1.4-7.8c.3-6.9-1.7 2-1.7 2z" class="st3" fill="#ccac8d" stroke-width="1.365"/>
      <path id="path942" d="M107.1 74.6s-1 5.4-2.6 7.1c-1.6 1.7-.5-1.3-.5-1.3s1.7-.9 1.4-7.8c-.3-6.9 1.7 2 1.7 2z" class="st3" fill="#ccac8d" stroke-width="1.365"/>
      <g id="g950" stroke-width="1.365">
        <circle id="circle944" r=".8" cy="70.5" cx="54.5" class="st8" fill="#442823" stroke-width="1.365"/>
        <circle id="circle946" r=".8" cy="75.3" cx="49.9" class="st8" fill="#442823" stroke-width="1.365"/>
        <circle id="circle948" r=".8" cy="70.5" cx="48.4" class="st8" fill="#442823" stroke-width="1.365"/>
      </g>
      <g id="g958" stroke-width="1.365">
        <circle id="circle952" r=".8" cy="70.5" cx="74" class="st8" fill="#442823" stroke-width="1.365"/>
        <circle id="circle954" r=".8" cy="75.3" cx="78.6" class="st8" fill="#442823" stroke-width="1.365"/>
        <circle id="circle956" r=".8" cy="70.5" cx="80.1" class="st8" fill="#442823" stroke-width="1.365"/>
      </g>
    </g>
    <g id="g1039" transform="matrix(.0648 0 0 .0648 155.67 107.105)" stroke-width="39.871">
      <path id="path1025" d="M0 0h256v256H0z" fill="#f7df1e"/>
      <path id="path1027" d="M67.312 213.932l19.59-11.856c3.78 6.701 7.218 12.371 15.465 12.371 7.905 0 12.89-3.092 12.89-15.12v-81.798h24.057v82.138c0 24.917-14.606 36.259-35.916 36.259-19.245 0-30.416-9.967-36.087-21.996m85.07-2.576l19.588-11.341c5.157 8.421 11.859 14.607 23.715 14.607 9.969 0 16.325-4.984 16.325-11.858 0-8.248-6.53-11.17-17.528-15.98l-6.013-2.58c-17.357-7.387-28.87-16.667-28.87-36.257 0-18.044 13.747-31.792 35.228-31.792 15.294 0 26.292 5.328 34.196 19.247l-18.732 12.03c-4.125-7.389-8.591-10.31-15.465-10.31-7.046 0-11.514 4.468-11.514 10.31 0 7.217 4.468 10.14 14.778 14.608l6.014 2.577c20.45 8.765 31.963 17.7 31.963 37.804 0 21.654-17.012 33.51-39.867 33.51-22.339 0-36.774-10.654-43.819-24.574"/>
    </g>
  </g>
  <style id="style850" type="text/css">
    .st1{fill:#efcca3}.st3{fill:#ccac8d}.st4{fill:#fff}.st7{fill:#56332b}.st8{fill:#442823}.st9{fill:#7f4a41}.st10{fill:#331712}
  </style>
</svg>
