<svg xmlns="http://www.w3.org/2000/svg" style="visibility:hidden; width:0; height:0;">


  <symbol id='facebook' viewBox="0 0 14222 14222">

    <path d="M14222 7111C14222 3184 11038 0 7111 0S0 3184 0 7111c0 3549 2600 6491 6000 7025V9167H4194V7111h1806V5544c0-1782 1062-2767 2686-2767 778 0 1592 139 1592 139v1750h-897c-883 0-1159 548-1159 1111v1334h1972l-315 2056H8222v4969c3400-533 6000-3475 6000-7025z"/>

  </symbol>

  <symbol id='github' viewBox="0 0 24 24">
    <path d="M12 .297c-6.63 0-12 5.373-12 12 0 5.303 3.438 9.8 8.205 11.385.6.113.82-.258.82-.577 0-.285-.01-1.04-.015-2.04-3.338.724-4.042-1.61-4.042-1.61C4.422 18.07 3.633 17.7 3.633 17.7c-1.087-.744.084-.729.084-.729 1.205.084 1.838 1.236 1.838 1.236 1.07 1.835 2.809 1.305 3.495.998.108-.776.417-1.305.76-1.605-2.665-.3-5.466-1.332-5.466-5.93 0-1.31.465-2.38 1.235-3.22-.135-.303-.54-1.523.105-3.176 0 0 1.005-.322 3.3 1.23.96-.267 1.98-.399 3-.405 1.02.006 2.04.138 3 .405 2.28-1.552 3.285-1.23 3.285-1.23.645 1.653.24 2.873.12 3.176.765.84 1.23 1.91 1.23 3.22 0 4.61-2.805 5.625-5.475 5.92.42.36.81 1.096.81 2.22 0 1.606-.015 2.896-.015 3.286 0 .315.21.69.825.57C20.565 22.092 24 17.592 24 12.297c0-6.627-5.373-12-12-12"/>
  </symbol>

  <symbol id='youtube' viewBox="0 0 24 24">
    <path d="M23.495 6.205a3.007 3.007 0 0 0-2.088-2.088c-1.87-.501-9.396-.501-9.396-.501s-7.507-.01-9.396.501A3.007 3.007 0 0 0 .527 6.205a31.247 31.247 0 0 0-.522 5.805 31.247 31.247 0 0 0 .522 5.783 3.007 3.007 0 0 0 2.088 2.088c1.868.502 9.396.502 9.396.502s7.506 0 9.396-.502a3.007 3.007 0 0 0 2.088-2.088 31.247 31.247 0 0 0 .5-5.783 31.247 31.247 0 0 0-.5-5.805zM9.609 15.601V8.408l6.264 3.602z"/>
  </symbol>
  
  <symbol id='vkontakte' viewBox="0 0 48 48">
    <path d="M24 0C10.745 0 0 10.745 0 24s10.745 24 24 24 24-10.745 24-24S37.255 0 24 0zm-2.313 16.992c.34-.005.696-.002 1.069.002 1.162.012 1.497.082 1.951.19 1.368.324.902 1.577.902 4.582 0 .961-.176 2.314.532 2.763.304.192 1.048.03 2.908-3.07.882-1.47 1.54-3.197 1.54-3.197s.148-.308.372-.44c.23-.134.539-.093.539-.093l4.176-.026s1.256-.15 1.459.408c.213.583-.47 1.947-2.176 4.18-2.802 3.666-3.115 3.322-.787 5.441 2.221 2.025 2.682 3.01 2.758 3.133.92 1.498-1.02 1.615-1.02 1.615l-3.71.051s-.798.156-1.846-.55c-1.39-.935-2.696-3.367-3.715-3.05-1.034.323-1.004 2.508-1.004 2.508s.008.47-.227.717c-.257.271-.758.324-.758.324h-1.66s-3.664.217-6.89-3.08c-3.52-3.596-6.625-10.734-6.625-10.734s-.181-.468.013-.693c.219-.255.817-.27.817-.27l3.968-.025s.373.06.641.254c.222.16.346.457.346.457s.64 1.592 1.49 3.033c1.659 2.813 2.43 3.426 2.992 3.125.82-.439.576-3.975.576-3.975s.014-1.283-.414-1.855c-.331-.443-.956-.574-1.232-.61-.224-.029.144-.537.619-.765.536-.257 1.38-.334 2.396-.35z"/>
  </symbol>
  
  <symbol id='twitter' viewBox="0 0 24 24">
    <path d="M23.954 4.569a10 10 0 0 1-2.825.775 4.958 4.958 0 0 0 2.163-2.723c-.951.555-2.005.959-3.127 1.184a4.92 4.92 0 0 0-8.384 4.482C7.691 8.094 4.066 6.13 1.64 3.161a4.822 4.822 0 0 0-.666 2.475c0 1.71.87 3.213 2.188 4.096a4.904 4.904 0 0 1-2.228-.616v.061a4.923 4.923 0 0 0 3.946 4.827 4.996 4.996 0 0 1-2.212.085 4.937 4.937 0 0 0 4.604 3.417 9.868 9.868 0 0 1-6.102 2.105c-.39 0-.779-.023-1.17-.067a13.995 13.995 0 0 0 7.557 2.209c9.054 0 13.999-7.496 13.999-13.986 0-.209 0-.42-.015-.63a9.936 9.936 0 0 0 2.46-2.548l-.047-.02z"/>
  </symbol>
  
  <symbol id='telegram' viewBox="0 0 48 48">
    <path d="M24 0C10.745 0 0 10.745 0 24s10.745 24 24 24 24-10.745 24-24S37.255 0 24 0zm9.32 13.615c.781-.046 1.518.172 1.627 1.092-.095 2.084-.49 4.156-.76 6.227-.685 4.556-1.478 9.093-2.251 13.634-.267 1.512-2.162 2.296-3.374 1.328-2.913-1.968-5.848-3.915-8.724-5.93-.942-.956-.07-2.332.771-3.015 2.4-2.365 4.945-4.373 7.22-6.86.612-1.481-1.2-.234-1.798.15-3.285 2.262-6.49 4.664-9.953 6.654-1.77.973-3.83.14-5.6-.403-1.584-.657-3.906-1.318-2.54-2.318 2.805-1.545 5.94-2.834 8.865-4.131 5.034-2.123 10.086-4.21 15.191-6.152a5.388 5.388 0 0 1 1.326-.276z"/> 
  </symbol>
    
  <symbol id='odnoklassniki' viewBox="0 0 24 24">
    <path d="M14.505 17.44a11.599 11.599 0 0 0 3.6-1.49 1.816 1.816 0 0 0-1.935-3.073 7.866 7.866 0 0 1-8.34 0 1.814 1.814 0 0 0-2.5.565c0 .002 0 .004-.002.005a1.812 1.812 0 0 0 .567 2.5l.002.002c1.105.695 2.322 1.2 3.596 1.488l-3.465 3.465A1.796 1.796 0 0 0 6 23.439l.03.03c.344.354.81.53 1.274.53.465 0 .93-.176 1.275-.53L12 20.065l3.404 3.406a1.815 1.815 0 0 0 2.566-2.565l-3.465-3.466zM12 12.388a6.202 6.202 0 0 0 6.195-6.193C18.195 2.78 15.415 0 12 0S5.805 2.78 5.805 6.197A6.2 6.2 0 0 0 12 12.389zm0-8.757a2.566 2.566 0 0 1 0 5.13 2.569 2.569 0 0 1-2.565-2.564A2.57 2.57 0 0 1 12 3.63z"/>
  </symbol>
  
  <symbol id='instagram' viewBox="0 0 12.7 12.7">
    <path d="M6.35.661c-1.545 0-1.738.007-2.345.035-.606.028-1.018.123-1.381.264-.374.145-.692.34-1.008.656A2.775 2.775 0 0 0 .96 2.624c-.14.363-.236.775-.264 1.38-.029.608-.035.8-.035 2.346 0 1.545.007 1.738.035 2.345.028.605.123 1.018.264 1.381.145.374.34.692.656 1.008.316.316.633.511 1.008.656.363.14.776.236 1.38.264.608.029.8.035 2.346.035 1.545 0 1.738-.007 2.345-.035.605-.028 1.018-.124 1.381-.264.374-.145.692-.34 1.008-.656.316-.316.511-.633.656-1.008.14-.363.236-.776.264-1.38.029-.608.035-.8.035-2.346 0-1.545-.007-1.738-.035-2.345-.028-.605-.124-1.019-.264-1.381a2.792 2.792 0 0 0-.656-1.008A2.771 2.771 0 0 0 10.076.96C9.713.82 9.3.724 8.696.696 8.087.667 7.895.66 6.35.66zm0 1.024c1.518 0 1.7.007 2.3.034.554.026.855.118 1.055.197.266.103.455.226.655.425.199.199.322.388.425.654.078.2.17.501.196 1.056.027.6.033.78.033 2.3 0 1.518-.007 1.699-.035 2.298-.03.555-.122.856-.2 1.056a1.806 1.806 0 0 1-.426.655c-.199.199-.39.322-.654.425-.2.078-.505.17-1.06.196-.604.027-.782.033-2.303.033-1.522 0-1.7-.007-2.304-.035-.555-.03-.86-.122-1.06-.2a1.762 1.762 0 0 1-.653-.426c-.2-.199-.327-.39-.427-.654-.078-.2-.17-.505-.2-1.06-.02-.597-.028-.781-.028-2.296 0-1.515.007-1.7.029-2.304.029-.555.12-.86.2-1.06.099-.27.226-.454.426-.654.198-.199.384-.327.653-.426.2-.078.499-.17 1.053-.2.605-.02.782-.028 2.304-.028zm0 1.744a2.92 2.92 0 1 0 0 5.842 2.92 2.92 0 0 0 0-5.842zm0 4.817a1.896 1.896 0 1 1-.001-3.791 1.896 1.896 0 0 1 .001 3.791zm3.72-4.932a.683.683 0 1 1-1.367-.001.683.683 0 0 1 1.366 0z"/>
  </symbol>
  
</svg>






