<?xml version="1.0" standalone="no"?>
<!DOCTYPE svg PUBLIC "-//W3C//DTD SVG 20010904//EN"
 "http://www.w3.org/TR/2001/REC-SVG-20010904/DTD/svg10.dtd">
<svg version="1.0" xmlns="http://www.w3.org/2000/svg"
 width="700.000000pt" height="700.000000pt" viewBox="0 0 700.000000 700.000000"
 preserveAspectRatio="xMidYMid meet">
<metadata>
Created by potrace 1.11, written by Peter Selinger 2001-2013
</metadata>
<g transform="translate(0.000000,700.000000) scale(0.100000,-0.100000)"
fill="#000000" stroke="none">
<path d="M4355 6350 c-292 -33 -500 -105 -550 -190 -20 -35 -20 -45 -20 -1105
0 -881 2 -1078 14 -1118 20 -67 79 -131 149 -159 52 -21 72 -23 242 -23 217 0
246 9 290 86 l25 44 3 331 3 332 252 5 c201 4 271 9 345 25 231 51 397 139
517 274 241 273 275 767 75 1072 -50 75 -155 182 -230 233 -116 79 -294 146
-475 179 -106 19 -513 28 -640 14z m529 -599 c108 -38 163 -98 192 -211 32
-127 -1 -257 -86 -333 -72 -65 -125 -79 -317 -85 l-163 -4 0 325 0 326 43 4
c98 11 271 -1 331 -22z"/>
<path d="M1115 6286 c-85 -27 -163 -83 -191 -138 -27 -53 -20 -128 22 -220
113 -253 378 -707 648 -1108 l111 -165 6 -350 c6 -383 8 -397 66 -465 55 -64
119 -83 298 -88 216 -6 274 12 322 101 16 28 18 68 21 321 l3 288 25 40 c91
143 220 398 427 838 58 124 130 272 161 330 30 58 67 141 81 185 64 189 15
340 -133 412 -54 27 -64 28 -197 28 -163 0 -230 -16 -295 -72 -53 -46 -66 -73
-216 -450 -140 -351 -198 -483 -213 -483 -5 0 -97 177 -204 393 -202 407 -244
474 -335 544 -64 49 -155 73 -271 72 -53 0 -114 -6 -136 -13z"/>
<path d="M3880 3234 c-86 -18 -184 -67 -211 -105 -50 -70 -49 -50 -49 -1160 0
-695 4 -1054 11 -1088 5 -27 23 -69 39 -94 57 -90 201 -129 417 -111 136 11
168 26 206 97 22 42 22 43 22 567 0 289 -3 616 -8 728 -6 160 -5 202 5 202 7
0 46 -82 87 -181 41 -99 173 -382 293 -627 121 -246 236 -480 256 -521 19 -40
58 -98 85 -128 97 -106 194 -142 399 -150 281 -11 421 40 460 169 10 34 13
266 13 1108 0 995 -1 1069 -18 1123 -39 127 -125 177 -319 185 -227 9 -292
-11 -338 -103 -24 -48 -25 -58 -28 -280 -4 -242 14 -1083 24 -1172 8 -64 -9
-72 -32 -15 -98 239 -184 424 -399 859 -231 467 -258 518 -310 572 -95 100
-221 141 -425 140 -63 0 -144 -7 -180 -15z"/>
<path d="M1443 3210 c-126 -17 -227 -91 -281 -208 l-27 -57 -3 -969 c-3 -1077
-5 -1040 63 -1143 21 -31 57 -67 88 -88 99 -65 97 -65 835 -65 495 0 675 3
705 12 61 18 122 82 141 147 32 109 12 296 -37 350 -12 13 -42 33 -67 45 -44
20 -61 21 -532 24 l-488 4 0 213 0 214 423 3 c415 3 423 3 464 25 87 47 130
154 120 293 -8 104 -23 149 -66 191 -64 64 -90 66 -534 25 -211 -20 -389 -36
-395 -36 -9 0 -12 60 -12 225 l0 224 473 3 c429 3 476 5 512 21 96 43 138 123
138 262 1 159 -41 246 -131 277 -44 14 -1287 21 -1389 8z"/>
</g>
</svg>
